<?xml version="1.0" encoding="UTF-8" standalone="no"?>
<!-- Created with Inkscape (http://www.inkscape.org/) -->

<svg
   xmlns:dc="http://purl.org/dc/elements/1.1/"
   xmlns:cc="http://creativecommons.org/ns#"
   xmlns:rdf="http://www.w3.org/1999/02/22-rdf-syntax-ns#"
   xmlns:svg="http://www.w3.org/2000/svg"
   xmlns="http://www.w3.org/2000/svg"
   xmlns:sodipodi="http://sodipodi.sourceforge.net/DTD/sodipodi-0.dtd"
   xmlns:inkscape="http://www.inkscape.org/namespaces/inkscape"
   width="744.09448819"
   height="1052.3622047"
   id="svg2"
   version="1.1"
   inkscape:version="0.48.2 r9819"
   sodipodi:docname="controller_diagram.svg"
   inkscape:export-filename="K:\Projects\School\EECS494\.png"
   inkscape:export-xdpi="30.528702"
   inkscape:export-ydpi="30.528702">
  <defs
     id="defs4" />
  <sodipodi:namedview
     id="base"
     pagecolor="#ffffff"
     bordercolor="#666666"
     borderopacity="1.0"
     inkscape:pageopacity="0.0"
     inkscape:pageshadow="2"
     inkscape:zoom="0.98994949"
     inkscape:cx="94.39769"
     inkscape:cy="509.40224"
     inkscape:document-units="px"
     inkscape:current-layer="layer1"
     showgrid="false"
     inkscape:window-width="1920"
     inkscape:window-height="1018"
     inkscape:window-x="-8"
     inkscape:window-y="-8"
     inkscape:window-maximized="1" />
  <metadata
     id="metadata7">
    <rdf:RDF>
      <cc:Work
         rdf:about="">
        <dc:format>image/svg+xml</dc:format>
        <dc:type
           rdf:resource="http://purl.org/dc/dcmitype/StillImage" />
        <dc:title></dc:title>
      </cc:Work>
    </rdf:RDF>
  </metadata>
  <g
     inkscape:label="Layer 1"
     inkscape:groupmode="layer"
     id="layer1">
    <path
       style="fill:none;stroke:#000000;stroke-width:1px;stroke-linecap:butt;stroke-linejoin:miter;stroke-opacity:1"
       d="m 167.68532,402.8341 1.01016,36.36549 c 5.06622,8.81939 24.3727,13.28012 32.32488,1.01015 l 0,-37.37564"
       id="path3047"
       inkscape:connector-curvature="0"
       sodipodi:nodetypes="cccc" />
    <path
       style="fill:none;stroke:#000000;stroke-width:1px;stroke-linecap:butt;stroke-linejoin:miter;stroke-opacity:1"
       d="m 450.02295,400.58268 1.01016,36.36549 c 5.06622,8.81939 24.3727,13.28012 32.32488,1.01015 l 0,-37.37564"
       id="path3047-0"
       inkscape:connector-curvature="0"
       sodipodi:nodetypes="cccc" />
    <path
       sodipodi:type="arc"
       style="fill:#0000ff;stroke:none"
       id="path3073"
       sodipodi:cx="440.42651"
       sodipodi:cy="526.07269"
       sodipodi:rx="18.182745"
       sodipodi:ry="18.182745"
       d="m 458.60926,526.07269 a 18.182745,18.182745 0 1 1 -36.36549,0 18.182745,18.182745 0 1 1 36.36549,0 z"
       transform="translate(-1.0101525,16.182746)" />
    <text
       xml:space="preserve"
       style="font-size:28px;font-style:normal;font-weight:normal;line-height:125%;letter-spacing:0px;word-spacing:0px;opacity:0.7;fill:#ffffff;fill-opacity:1;stroke:none;font-family:Sans"
       x="429.31482"
       y="551.32654"
       id="text3075"
       sodipodi:linespacing="125%"><tspan
         sodipodi:role="line"
         id="tspan3077"
         x="429.31482"
         y="551.32654">X</tspan></text>
    <path
       sodipodi:type="arc"
       style="fill:#ffff00;stroke:none"
       id="path3073-9"
       sodipodi:cx="440.42651"
       sodipodi:cy="526.07269"
       sodipodi:rx="18.182745"
       sodipodi:ry="18.182745"
       d="m 458.60926,526.07269 a 18.182745,18.182745 0 1 1 -36.36549,0 18.182745,18.182745 0 1 1 36.36549,0 z"
       transform="translate(37.152284,-19.73602)" />
    <text
       xml:space="preserve"
       style="font-size:28px;font-style:normal;font-weight:normal;line-height:125%;letter-spacing:0px;word-spacing:0px;opacity:0.7;fill:#ffffff;fill-opacity:1;stroke:none;font-family:Sans"
       x="467.47726"
       y="515.40778"
       id="text3075-4"
       sodipodi:linespacing="125%"><tspan
         sodipodi:role="line"
         id="tspan3077-8"
         x="467.47726"
         y="515.40778">Y</tspan></text>
    <path
       sodipodi:type="arc"
       style="fill:#00ad00;stroke:none;fill-opacity:1"
       id="path3073-9-8"
       sodipodi:cx="440.42651"
       sodipodi:cy="526.07269"
       sodipodi:rx="18.182745"
       sodipodi:ry="18.182745"
       d="m 458.60926,526.07269 a 18.182745,18.182745 0 1 1 -36.36549,0 18.182745,18.182745 0 1 1 36.36549,0 z"
       transform="translate(37.131979,56.182759)" />
    <text
       xml:space="preserve"
       style="font-size:28px;font-style:normal;font-weight:normal;line-height:125%;letter-spacing:0px;word-spacing:0px;opacity:0.7;fill:#ffffff;fill-opacity:1;stroke:none;font-family:Sans"
       x="467.45697"
       y="591.32654"
       id="text3075-4-2"
       sodipodi:linespacing="125%"><tspan
         sodipodi:role="line"
         id="tspan3077-8-4"
         x="467.45697"
         y="591.32654">A</tspan></text>
    <path
       sodipodi:type="arc"
       style="fill:#ff0000;stroke:none"
       id="path3073-9-5"
       sodipodi:cx="440.42651"
       sodipodi:cy="526.07269"
       sodipodi:rx="18.182745"
       sodipodi:ry="18.182745"
       d="m 458.60926,526.07269 a 18.182745,18.182745 0 1 1 -36.36549,0 18.182745,18.182745 0 1 1 36.36549,0 z"
       transform="translate(75.131979,18.182759)" />
    <text
       xml:space="preserve"
       style="font-size:28px;font-style:normal;font-weight:normal;line-height:125%;letter-spacing:0px;word-spacing:0px;opacity:0.7;fill:#ffffff;fill-opacity:1;stroke:none;font-family:Sans"
       x="507.45697"
       y="553.32654"
       id="text3075-4-5"
       sodipodi:linespacing="125%"><tspan
         sodipodi:role="line"
         id="tspan3077-8-1"
         x="507.45697"
         y="553.32654">B</tspan></text>
    <path
       style="opacity:0.7;fill:#b3b3b3;fill-opacity:1;stroke:#000000;stroke-opacity:1"
       d="M 100.83774,712.84008 C 86.202612,709.20782 72.794377,696.63471 66.921972,681.03675 62.10502,668.24223 60.698935,660.61967 60.191892,644.55212 59.461524,621.40766 61.2271,611.09806 70.192852,586.1543 101.23021,499.80475 130.2655,440.48089 154.19884,414.51628 c 3.34178,-3.62541 11.62478,-8.52594 13.54565,-8.52594 0.22211,0 0.44972,7.57865 0.72407,16.62318 0.55319,18.23789 -0.30564,19.50786 5.81886,22.95002 8.326,4.67948 20.56097,2.95991 25.3252,-3.09683 1.86747,-2.3741 1.03265,-3.74124 1.8526,-20.79368 l -0.17857,-18.56861 6.15406,2.57557 c 2.8909,1.20989 8.36391,5.66207 12.37437,9.43447 18.18716,17.10759 24.8344,21.54058 38.26438,25.51821 7.05652,2.08997 9.98877,2.22737 60.95123,2.85604 29.44595,0.36324 57.14735,0.28472 61.55867,-0.1745 19.60647,-2.04104 31.44697,-7.94248 48.96385,-24.40415 5.26081,-4.9439 11.63778,-10.30589 14.17106,-11.91554 l 4.60595,-2.92664 0.68274,4.33351 c 0.37551,2.38343 1.60929,9.88315 1.65048,16.44779 0.0412,6.56463 0.5378,12.62212 1.1036,13.67933 1.53139,2.86143 8.76896,5.87242 13.85864,6.57004 5.66109,0.77594 13.17851,-0.82777 16.02428,-5.14988 l 1.46925,-2.23146 0.17857,-15.98073 c 0.11557,-10.34244 -0.3219,-17.76644 0.23829,-17.76644 1.84604,0 15.08817,11.8052 21.27621,19.8335 22.83111,29.62089 51.12238,87.01806 70.97308,143.98978 14.43834,41.43818 18.15916,59.74334 17.20308,84.63344 -0.34544,8.99307 -1.23237,17.26114 -2.24491,20.9275 -3.8424,13.91307 -12.68435,25.7864 -23.21531,31.17447 -15.81812,8.09319 -39.7059,7.59921 -62.77766,-1.2982 -8.75134,-3.37488 -9.90961,-4.16199 -25.91617,-17.6115 -27.34048,-22.97284 -44.18243,-30.62933 -76.93598,-34.97577 -19.8163,-2.62964 -71.27373,-7.08653 -81.59486,-7.06719 -13.67959,0.0257 -44.7031,2.33279 -59.35663,4.41422 -41.22127,5.8552 -69.4039,18.56607 -96.97464,43.73729 -18.24196,16.65434 -45.01875,25.60863 -63.13454,21.1125 z M 193.16255,599.5753 c 15.94709,-3.75906 30.33062,-15.3207 37.40559,-30.06702 4.97207,-10.36329 6.60164,-18.54945 5.84024,-29.33858 -2.11428,-29.95956 -26.52662,-52.55653 -56.77874,-52.55653 -15.80555,0 -28.68441,5.3482 -40.01042,16.61511 -21.50933,21.39709 -22.37752,55.38316 -1.99028,77.91179 8.59906,9.50226 20.70275,16.33431 32.40425,18.29089 5.85353,0.97875 17.11453,0.56216 23.12936,-0.85566 z m 293.92997,-1.52652 c 12.64887,-7.10906 11.87023,-26.39557 -1.30726,-32.38049 -5.04663,-2.29206 -10.55201,-2.42075 -15.4797,-0.36182 -5.0092,2.09297 -7.26193,4.24672 -9.46891,9.05284 -7.6826,16.73032 10.09648,32.77156 26.25587,23.68947 z m 35.16561,-36.38064 c 6.53461,-2.46895 11.45159,-9.46024 11.59254,-16.48307 0.18879,-9.40543 -4.90615,-16.54924 -13.44213,-18.84774 -13.92523,-3.74968 -25.45286,7.81426 -22.65528,22.72666 0.80348,4.28293 5.86876,10.40227 10.15718,12.27085 3.72711,1.62401 10.51426,1.78168 14.34769,0.3333 z m -71.99704,-4.34472 c 16.22712,-12.37702 4.01534,-38.23989 -15.56622,-32.96711 -12.38771,3.33565 -17.66856,17.73177 -10.49728,28.61656 5.28877,8.02743 18.37829,10.21235 26.0635,4.35055 z m 35.94985,-34.52091 c 5.49211,-2.79293 10.10153,-10.38066 10.10153,-16.6285 0,-3.6193 -2.36988,-9.71698 -4.83676,-12.44488 -5.88274,-6.50526 -17.97987,-7.59691 -24.98403,-2.25458 -12.3652,9.4314 -8.21233,29.33886 6.86512,32.90894 3.81891,0.90425 9.29043,0.23128 12.85414,-1.58098 z"
       id="path3942"
       inkscape:connector-curvature="0"
       sodipodi:nodetypes="cssssssssscssssssscssssscssssssssssssscsssssssssssssscssssscsssscsss" />
    <g
       id="g3989">
      <path
         transform="matrix(0.77777779,0,0,0.77777779,-194.17877,120.94564)"
         d="m 553.5636,544.25543 a 72.730988,72.730988 0 1 1 -145.46198,0 72.730988,72.730988 0 1 1 145.46198,0 z"
         sodipodi:ry="72.730988"
         sodipodi:rx="72.730988"
         sodipodi:cy="544.25543"
         sodipodi:cx="480.83261"
         id="path3069"
         style="fill:#ececec;stroke:none"
         sodipodi:type="arc" />
      <path
         transform="matrix(0.50000003,0,0,0.50000003,-60.284284,272.67086)"
         d="m 553.5636,544.25543 a 72.730988,72.730988 0 1 1 -145.46198,0 72.730988,72.730988 0 1 1 145.46198,0 z"
         sodipodi:ry="72.730988"
         sodipodi:rx="72.730988"
         sodipodi:cy="544.25543"
         sodipodi:cx="480.83261"
         id="path3069-1"
         style="fill:#999999;stroke:none"
         sodipodi:type="arc" />
      <path
         inkscape:connector-curvature="0"
         id="path3944"
         d="m 178.797,576.58033 0,-12.12183"
         style="fill:none;stroke:#000000;stroke-width:1px;stroke-linecap:butt;stroke-linejoin:miter;stroke-opacity:1" />
      <path
         inkscape:connector-curvature="0"
         id="path3944-1"
         d="m 178.98985,523.61579 0,-12.12183"
         style="fill:none;stroke:#000000;stroke-width:1px;stroke-linecap:butt;stroke-linejoin:miter;stroke-opacity:1" />
      <g
         transform="matrix(0,1,-1,0,692.32657,305.55488)"
         id="g3985">
        <path
           style="fill:none;stroke:#000000;stroke-width:1px;stroke-linecap:butt;stroke-linejoin:miter;stroke-opacity:1"
           d="m 237.28942,545.48391 0,-12.12183"
           id="path3944-5"
           inkscape:connector-curvature="0" />
        <path
           style="fill:none;stroke:#000000;stroke-width:1px;stroke-linecap:butt;stroke-linejoin:miter;stroke-opacity:1"
           d="m 237.48227,492.51937 0,-12.12183"
           id="path3944-1-2"
           inkscape:connector-curvature="0" />
      </g>
    </g>
    <path
       sodipodi:type="arc"
       style="opacity:0.69999999999999996;fill:#ffffff;fill-opacity:1;stroke:none"
       id="path4060"
       sodipodi:cx="274.76151"
       sodipodi:cy="554.86206"
       sodipodi:rx="18.182745"
       sodipodi:ry="12.626906"
       d="m 292.94425,554.86206 a 18.182745,12.626906 0 1 1 -36.36549,0 18.182745,12.626906 0 1 1 36.36549,0 z"
       transform="translate(-2,-12)" />
    <path
       style="fill:#cccccc;fill-opacity:1;stroke:none"
       d="m 278.49609,550.31637 -16.77485,-7.07107 15.94255,-8.08122 -0.19988,8.08122 z"
       id="path4062"
       inkscape:connector-curvature="0"
       sodipodi:nodetypes="ccccc" />
    <path
       sodipodi:type="arc"
       style="opacity:0.7;fill:#ffffff;fill-opacity:1;stroke:none"
       id="path4060-2"
       sodipodi:cx="274.76151"
       sodipodi:cy="554.86206"
       sodipodi:rx="18.182745"
       sodipodi:ry="12.626906"
       d="m 292.94425,554.86206 a 18.182745,12.626906 0 1 1 -36.36549,0 18.182745,12.626906 0 1 1 36.36549,0 z"
       transform="matrix(-0.96418559,0,0,1,650.06394,-11.071307)" />
    <path
       style="fill:#cccccc;fill-opacity:1;stroke:none"
       d="m 379.61365,551.24506 16.17407,-7.07107 -15.37157,-8.08122 0.19272,8.08122 z"
       id="path4062-7"
       inkscape:connector-curvature="0"
       sodipodi:nodetypes="ccccc" />
    <text
       xml:space="preserve"
       style="font-size:24px;font-style:normal;font-weight:normal;line-height:125%;letter-spacing:0px;word-spacing:0px;fill:#ffffff;fill-opacity:1;stroke:none;font-family:Sans"
       x="595.71429"
       y="353.79071"
       id="text4089"
       sodipodi:linespacing="125%"><tspan
         sodipodi:role="line"
         id="tspan4091"
         x="595.71429"
         y="353.79071">Reverse</tspan></text>
    <path
       style="fill:none;stroke:#ffffff;stroke-width:1px;stroke-linecap:butt;stroke-linejoin:miter;stroke-opacity:1"
       d="m 466.98465,392.48776 131.42857,0"
       id="path4087-9"
       inkscape:connector-curvature="0"
       sodipodi:nodetypes="cc" />
    <text
       xml:space="preserve"
       style="font-size:24px;font-style:normal;font-weight:normal;line-height:125%;letter-spacing:0px;word-spacing:0px;fill:#ffffff;fill-opacity:1;stroke:none;font-family:Sans"
       x="598.41327"
       y="399.63058"
       id="text4089-5"
       sodipodi:linespacing="125%"><tspan
         sodipodi:role="line"
         id="tspan4091-4"
         x="598.41327"
         y="399.63058">Forward</tspan></text>
    <path
       style="fill:none;stroke:#ffffff;stroke-width:1px;stroke-linecap:butt;stroke-linejoin:miter;stroke-opacity:1"
       d="m 593.57143,344.50504 -372.57143,0 -36,50"
       id="path4117"
       inkscape:connector-curvature="0"
       sodipodi:nodetypes="ccc" />
    <path
       style="fill:none;stroke:#ffffff;stroke-width:1px;stroke-linecap:butt;stroke-linejoin:miter;stroke-opacity:1"
       d="m 195,525.93361 46.42857,-79.28571 353.57143,0"
       id="path4119"
       inkscape:connector-curvature="0"
       sodipodi:nodetypes="ccc" />
    <text
       xml:space="preserve"
       style="font-size:24px;font-style:normal;font-weight:normal;line-height:125%;letter-spacing:0px;word-spacing:0px;fill:#ffffff;fill-opacity:1;stroke:none;font-family:Sans"
       x="595.71429"
       y="455.2193"
       id="text4121"
       sodipodi:linespacing="125%"><tspan
         sodipodi:role="line"
         id="tspan4123"
         x="595.71429"
         y="455.2193">Steering</tspan></text>
    <text
       xml:space="preserve"
       style="font-size:24px;font-style:normal;font-weight:normal;line-height:125%;letter-spacing:0px;word-spacing:0px;fill:#ffffff;fill-opacity:1;stroke:none;font-family:Sans"
       x="597.85718"
       y="651.64789"
       id="text4125"
       sodipodi:linespacing="125%"><tspan
         sodipodi:role="line"
         id="tspan4127"
         x="597.85718"
         y="651.64789">Respawn</tspan></text>
    <path
       style="fill:none;stroke:#ffffff;stroke-width:1px;stroke-linecap:butt;stroke-linejoin:miter;stroke-opacity:1"
       d="m 283.57143,544.50504 98.71428,98.42857 213.57143,0"
       id="path4129"
       inkscape:connector-curvature="0"
       sodipodi:nodetypes="ccc" />
    <path
       style="fill:none;stroke:#ffffff;stroke-width:1px;stroke-linecap:butt;stroke-linejoin:miter;stroke-opacity:1"
       d="m 437.85715,532.36219 22.88392,-55.24382 132.97322,0"
       id="path4131"
       inkscape:connector-curvature="0"
       sodipodi:nodetypes="ccc" />
    <text
       xml:space="preserve"
       style="font-size:24px;font-style:normal;font-weight:normal;line-height:125%;letter-spacing:0px;word-spacing:0px;fill:#ffffff;fill-opacity:1;stroke:none;font-family:Sans"
       x="596.57141"
       y="486.07648"
       id="text4133"
       sodipodi:linespacing="125%"><tspan
         sodipodi:role="line"
         id="tspan4135"
         x="596.57141"
         y="486.07648">Missile</tspan></text>
    <path
       style="fill:none;stroke:#ffffff;stroke-width:1px;stroke-linecap:butt;stroke-linejoin:miter;stroke-opacity:1"
       d="m 487,504.50504 106.57143,0"
       id="path4137"
       inkscape:connector-curvature="0" />
    <text
       xml:space="preserve"
       style="font-size:24px;font-style:normal;font-weight:normal;line-height:125%;letter-spacing:0px;word-spacing:0px;fill:#ffffff;fill-opacity:1;stroke:none;font-family:Sans"
       x="597.14288"
       y="513.07648"
       id="text4139"
       sodipodi:linespacing="125%"><tspan
         sodipodi:role="line"
         id="tspan4141"
         x="597.14288"
         y="513.07648">Jump</tspan></text>
    <path
       style="fill:none;stroke:#ffffff;stroke-width:1px;stroke-linecap:butt;stroke-linejoin:miter;stroke-opacity:1"
       d="m 527.85714,544.50504 64.28572,0"
       id="path4143"
       inkscape:connector-curvature="0" />
    <text
       xml:space="preserve"
       style="font-size:24px;font-style:normal;font-weight:normal;line-height:125%;letter-spacing:0px;word-spacing:0px;fill:#ffffff;fill-opacity:1;stroke:none;font-family:Sans"
       x="598.57141"
       y="553.07648"
       id="text4145"
       sodipodi:linespacing="125%"><tspan
         sodipodi:role="line"
         id="tspan4147"
         x="598.57141"
         y="553.07648">Mine</tspan></text>
    <path
       style="fill:none;stroke:#000000;stroke-width:1px;stroke-linecap:butt;stroke-linejoin:miter;stroke-opacity:1"
       d="m 201.02036,403.33917 c 0,0 4.04061,-24.24366 -14.64722,-23.99112 -18.68782,0.25254 -18.94036,13.13198 -18.68782,24.74874"
       id="path4167"
       inkscape:connector-curvature="0" />
    <path
       style="fill:none;stroke:#000000;stroke-width:1px;stroke-linecap:butt;stroke-linejoin:miter;stroke-opacity:1"
       d="m 483.50487,403.26562 c 0,0 4.04061,-24.24366 -14.64722,-23.99112 -18.68781,0.25254 -18.94035,13.13198 -18.68781,24.74874"
       id="path4167-1"
       inkscape:connector-curvature="0" />
    <path
       style="fill:#ffffff;fill-opacity:1;stroke:#ffffff;stroke-width:0.71428573;stroke-opacity:1"
       d="m 179.49657,445.73033 c -3.62155,-1.13019 -8.38564,-4.26554 -9.06286,-5.96445 -0.72462,-1.81784 -1.94173,-33.10178 -1.60456,-41.24279 0.34212,-8.26056 1.98096,-12.26627 6.17388,-15.09048 7.07966,-4.76861 18.11322,-3.90141 22.06758,1.73443 3.04712,4.34282 3.26514,6.53035 3.11615,31.26617 l -0.14198,23.57143 -2.74559,2.62003 c -4.25838,4.06365 -10.97711,5.23572 -17.80262,3.10566 l 0,0 z"
       id="path4508"
       inkscape:connector-curvature="0" />
    <path
       style="fill:#ffffff;fill-opacity:1;stroke:#ffffff;stroke-width:0.71428573;stroke-opacity:1"
       d="m 464.56541,443.92097 c -4.3538,-0.8973 -8.8548,-3.07551 -10.86019,-5.25568 -1.71174,-1.86092 -1.74829,-2.17853 -2.33298,-20.27559 -0.93288,-28.87379 0.34115,-33.49806 10.186,-36.97152 3.76787,-1.32939 9.99119,-1.35989 13.09226,-0.0642 1.30608,0.54572 3.18328,1.86424 4.17154,2.93004 3.42515,3.69386 3.68983,6.03005 3.48052,30.72061 l -0.19376,22.85714 -1.90373,2.02279 c -3.40502,3.61798 -9.73855,5.25258 -15.63966,4.0364 l 0,0 z"
       id="path4510"
       inkscape:connector-curvature="0" />
  </g>
</svg>
